# xmcd
#
# Track frame offsets: 
#        150
#        9705
#        22685
#        35263
#        49099
#        61818
#        77818
#        97594
#        109574
#        124738
#        137490
#        152898
#        166202
#        176894
#        210203
#
# Disc length: 3266 seconds
#
# Revision: 5
# Processed by: cddbd v1.5.2PL0 Copyright (c) Steve Scherf et al.
# Submitted via: ExactAudioCopy v1.1
#
DISCID=ab0cc00f
DTITLE=Various Artist - Mojo Presents The Roots Of Bob Dylan
DYEAR=2006
DGENRE=Rock
TTITLE0=Sonny Terry and Brownie McGhee - You'd Better Mind
TTITLE1=Julia Lee - Mama Don't Allow It
TTITLE2=Lightnin' Hopkins - Baby Please Don't Go
TTITLE3=Muddy Waters - Rollin' Stone
TTITLE4=Karen Dalton - How Did The Feeling Feel To You
TTITLE5=Richie Havens - High Flying Bird
TTITLE6=Josh White - Good Morning Blues
TTITLE7=Hank Williams - Lost Highway
TTITLE8=The Country Gentlemen - House Of The Rising Sun
TTITLE9=Cisco Houston - Dark As A Dungeon
TTITLE10=Charlie Poole And The North Carolina Ramblers - White House B
TTITLE10=lues
TTITLE11=The Staple Singers - Uncloudy Day
TTITLE12=The Highway QC's - Working On The Building
TTITLE13=Big Bill Broonzy - When The Sun Goes Down - Going Down This R
TTITLE13=oad Feeling Bad
TTITLE14=Thelonious Monk - Ruby, My Dear
EXTD=
EXTT0=
EXTT1=
EXTT2=
EXTT3=
EXTT4=
EXTT5=
EXTT6=
EXTT7=
EXTT8=
EXTT9=
EXTT10=
EXTT11=
EXTT12=
EXTT13=
EXTT14=
PLAYORDER=
